<svg width="24" height="24" viewBox="0 0 24 24" fill="none" xmlns="http://www.w3.org/2000/svg">
<path d="M7.19922 2.3999C5.87374 2.3999 4.79922 3.47442 4.79922 4.7999V11.9999H5.99922V4.7999C5.99922 4.13716 6.53648 3.5999 7.19922 3.5999H11.9992V7.7999C11.9992 8.79401 12.8051 9.5999 13.7992 9.5999H17.9992V19.1999C17.9992 19.8626 17.462 20.3999 16.7992 20.3999H13.1992V21.5999H16.7992C18.1247 21.5999 19.1992 20.5254 19.1992 19.1999V8.89696C19.1992 8.41957 19.0096 7.96173 18.672 7.62417L13.975 2.92711C13.6374 2.58954 13.1796 2.3999 12.7022 2.3999H7.19922ZM17.7507 8.3999H13.7992C13.4678 8.3999 13.1992 8.13127 13.1992 7.7999V3.84843L17.7507 8.3999ZM4.19922 13.1999C4.53059 13.1999 4.79922 13.4685 4.79922 13.7999C4.79922 14.1313 4.53059 14.3999 4.19922 14.3999H2.99922C2.66785 14.3999 2.39922 14.6685 2.39922 14.9999V20.9999C2.39922 21.3313 2.66785 21.5999 2.99922 21.5999H4.19922C4.53059 21.5999 4.79922 21.8685 4.79922 22.1999C4.79922 22.5313 4.53059 22.7999 4.19922 22.7999H2.99922C2.00511 22.7999 1.19922 21.994 1.19922 20.9999V14.9999C1.19922 14.0058 2.00511 13.1999 2.99922 13.1999H4.19922ZM8.99922 21.5999C8.66785 21.5999 8.39922 21.8685 8.39922 22.1999C8.39922 22.5313 8.66785 22.7999 8.99922 22.7999H10.1992C11.1933 22.7999 11.9992 21.994 11.9992 20.9999V14.9999C11.9992 14.0058 11.1933 13.1999 10.1992 13.1999H8.99922C8.66785 13.1999 8.39922 13.4685 8.39922 13.7999C8.39922 14.1313 8.66785 14.3999 8.99922 14.3999H10.1992C10.5306 14.3999 10.7992 14.6685 10.7992 14.9999V20.9999C10.7992 21.3313 10.5306 21.5999 10.1992 21.5999H8.99922ZM6.59778 16.7999C6.92915 16.7998 7.1979 17.0683 7.19805 17.3996L7.19965 20.9996C7.1998 21.331 6.93129 21.5998 6.59992 21.5999C6.26854 21.6 5.9998 21.3315 5.99965 21.0002L5.99805 17.4002C5.9979 17.0688 6.26641 16.8 6.59778 16.7999ZM6.59922 15.5999C6.93059 15.5999 7.19922 15.3313 7.19922 14.9999C7.19922 14.6685 6.93059 14.3999 6.59922 14.3999C6.26785 14.3999 5.99922 14.6685 5.99922 14.9999C5.99922 15.3313 6.26785 15.5999 6.59922 15.5999Z" fill="currentColor"/>
</svg>
