<svg width="24" height="24" viewBox="0 0 24 24" fill="none" xmlns="http://www.w3.org/2000/svg">
<path d="M18 14C18.5523 14 19 14.4477 19 15V16C19 16.5523 18.5523 17 18 17H15C14.4477 17 14 16.5523 14 16V15C14 14.4477 14.4477 14 15 14H18Z" fill="currentColor"/>
<path fill-rule="evenodd" clip-rule="evenodd" d="M19.75 4C20.9926 4 22 5.00736 22 6.25V17.7549C21.9998 18.9974 20.9925 20.0049 19.75 20.0049H4.25C3.00746 20.0049 2.00016 18.9974 2 17.7549V6.25C2 5.00736 3.00736 4 4.25 4H19.75ZM3.5 17.7549C3.50016 18.169 3.83588 18.5049 4.25 18.5049H19.75C20.1641 18.5049 20.4998 18.169 20.5 17.7549V10.2002H3.5V17.7549ZM4.25 5.5C3.83579 5.5 3.5 5.83579 3.5 6.25V8H20.5V6.25C20.5 5.83579 20.1642 5.5 19.75 5.5H4.25Z" fill="currentColor"/>
</svg>
