<svg width="24" height="24" viewBox="0 0 24 24" fill="none" xmlns="http://www.w3.org/2000/svg">
<path d="M12.0018 18.0058C10.8997 18.0058 10.0063 18.8999 10.0063 20.0029C10.0063 21.1059 10.8997 22 12.0018 22C13.1039 22 13.9973 21.1059 13.9973 20.0029C13.9973 18.8999 13.1039 18.0058 12.0018 18.0058ZM11.9975 2C10.9727 2.00037 10.1284 2.77267 10.0134 3.76729L10 4.00051L10.0036 14.0012L10.0171 14.2344C10.1329 15.229 10.9778 16.0007 12.0025 16.0003C13.0273 15.9999 13.8716 15.2276 13.9866 14.233L14 13.9998L13.9964 3.99907L13.9829 3.76586C13.8671 2.77133 13.0222 1.99963 11.9975 2Z" fill="currentColor"/>
</svg>
