<svg width="24" height="24" viewBox="0 0 24 24" fill="none" xmlns="http://www.w3.org/2000/svg">
<path d="M11.21 3.2527C11.5043 3.2255 11.7875 3.37407 11.9326 3.63161C12.0778 3.88914 12.0585 4.20834 11.8828 4.44606C11.1019 5.50257 10.7256 6.80389 10.8233 8.11403C10.921 9.42424 11.486 10.6557 12.4151 11.5847C13.3441 12.5138 14.5755 13.0788 15.8858 13.1765C17.1959 13.2742 18.4972 12.8978 19.5537 12.117C19.7914 11.9412 20.1107 11.922 20.3682 12.0672C20.6257 12.2123 20.7743 12.4954 20.7471 12.7898C20.5938 14.4478 19.9716 16.0282 18.9531 17.3455C17.9346 18.6628 16.5613 19.6626 14.9951 20.2283C13.4291 20.7939 11.7345 20.9021 10.1094 20.5398C8.4841 20.1774 6.99488 19.3599 5.8174 18.1824C4.63992 17.0049 3.82238 15.5157 3.45998 13.8904C3.09769 12.2653 3.2059 10.5706 3.7715 9.00465C4.33721 7.43849 5.33694 6.06519 6.65431 5.04665C7.97161 4.02817 9.55195 3.40598 11.21 3.2527ZM9.83302 5.05153C9.01936 5.30791 8.25356 5.70741 7.57228 6.23415C6.48035 7.07842 5.65154 8.21625 5.18263 9.51442C4.71381 10.8125 4.62351 12.2171 4.92385 13.5642C5.22424 14.9114 5.90291 16.1448 6.87892 17.1209C7.85494 18.0969 9.08836 18.7755 10.4356 19.0759C11.7826 19.3763 13.1873 19.286 14.4854 18.8172C15.7835 18.3482 16.9214 17.5194 17.7656 16.4275C18.2925 15.7461 18.6909 14.9797 18.9473 14.1658C17.9501 14.5754 16.865 14.7539 15.7744 14.6726C14.1059 14.5482 12.5376 13.8284 11.3545 12.6453C10.1714 11.4622 9.45159 9.89385 9.32717 8.22536C9.24588 7.13465 9.42327 6.0488 9.83302 5.05153Z" fill="currentColor"/>
</svg>
